<svg viewBox="0 0 900 600" xmlns="http://www.w3.org/2000/svg">
  <!-- Fondo blanco completo (visible) -->
  <rect width="900" height="600" fill="white" />

  <!-- Wave negra (recorta) -->
  <path
    d="M0 245L7.5 278.7C15 312.3 30 379.7 45 406C60 432.3 75 417.7 90 374C105 330.3 120 257.7 135 266.8C150 276 165 367 180 357.7C195 348.3 210 238.7 225 180.5C240 122.3 255 115.7 270 151C285 186.3 300 263.7 315 315.7C330 367.7 345 394.3 360 386.2C375 378 390 335 405 314C420 293 435 294 450 317.5C465 341 480 387 495 407C510 427 525 421 540 372.2C555 323.3 570 231.7 585 236.7C600 241.7 615 343.3 630 383.7C645 424 660 403 675 398.7C690 394.3 705 406.7 720 401.3C735 396 750 373 765 327.2C780 281.3 795 212.7 810 204.7C825 196.7 840 249.3 855 250.2C870 251 885 200 892.5 174.5L900 149L900 600L0 600Z"
    fill="black"
  />
</svg>
